<?xml version="1.0" encoding="UTF-8" standalone="no"?>
<!DOCTYPE svg PUBLIC "-//W3C//DTD SVG 20010904//EN" "http://www.w3.org/TR/2001/REC-SVG-20010904/DTD/svg10.dtd">
<svg version="1.0" xmlns="http://www.w3.org/2000/svg" width="64.000000pt" height="64.000000pt" viewBox="0 0 64.000000 64.000000" preserveAspectRatio="xMidYMid meet">
<metadata>
Created by potrace 1.11, written by Peter Selinger 2001-2013
</metadata>
<g transform="translate(0.000000,64.000000) scale(0.100000,-0.100000)" fill="#000000" stroke="none">
<path d="M176 565 c-58 -22 -118 -76 -146 -131 -31 -62 -34 -179 -6 -233 29 -55 98 -116 151 -134 66 -23 224 -23 291 0 65 22 137 95 159 164 31 91 3 210 -64 273 -59 55 -107 71 -231 73 -81 2 -126 -2 -154 -12z m48 -34 c-91 -66 -115 -122 -117 -277 -1 -71 -6 -113 -12 -111 -22 8 -66 95 -71 144 -13 109 60 225 163 257 72 22 80 19 37 -13z m266 -4 c181 -93 165 -365 -26 -437 -77 -28 -94 -25 -48 9 53 38 70 59 95 115 27 62 27 140 -1 203 -24 55 -41 75 -95 116 l-40 30 35 -7 c19 -3 55 -17 80 -29z m-112 4 c39 -20 87 -68 111 -111 22 -39 26 -148 7 -193 -23 -52 -78 -110 -125 -132 -54 -24 -98 -14 -155 36 -63 56 -81 97 -81 189 0 64 4 81 27 115 30 47 61 76 103 98 40 21 68 21 113 -2z m-203 -389 c16 -20 43 -44 60 -54 37 -22 15 -23 -48 -2 -56 19 -60 25 -62 84 -2 37 0 41 9 26 6 -11 24 -35 41 -54z"></path>
</g>
</svg>