<svg version="1.0" xmlns="http://www.w3.org/2000/svg" width="85.333" height="85.333" viewBox="0 0 64 64"><path d="M17.6 7.5C11.8 9.7 5.8 15.1 3 20.6c-3.1 6.2-3.4 17.9-.6 23.3 2.9 5.5 9.8 11.6 15.1 13.4 6.6 2.3 22.4 2.3 29.1 0 6.5-2.2 13.7-9.5 15.9-16.4 3.1-9.1.3-21-6.4-27.3C50.2 8.1 45.4 6.5 33 6.3c-8.1-.2-12.6.2-15.4 1.2zm4.8 3.4c-9.1 6.6-11.5 12.2-11.7 27.7-.1 7.1-.6 11.3-1.2 11.1-2.2-.8-6.6-9.5-7.1-14.4-1.3-10.9 6-22.5 16.3-25.7 7.2-2.2 8-1.9 3.7 1.3zm26.6.4c18.1 9.3 16.5 36.5-2.6 43.7-7.7 2.8-9.4 2.5-4.8-.9 5.3-3.8 7-5.9 9.5-11.5 2.7-6.2 2.7-14-.1-20.3-2.4-5.5-4.1-7.5-9.5-11.6l-4-3 3.5.7c1.9.3 5.5 1.7 8 2.9zm-11.2-.4c3.9 2 8.7 6.8 11.1 11.1 2.2 3.9 2.6 14.8.7 19.3-2.3 5.2-7.8 11-12.5 13.2-5.4 2.4-9.8 1.4-15.5-3.6-6.3-5.6-8.1-9.7-8.1-18.9 0-6.4.4-8.1 2.7-11.5 3-4.7 6.1-7.6 10.3-9.8 4-2.1 6.8-2.1 11.3.2zM17.5 49.8c1.6 2 4.3 4.4 6 5.4 3.7 2.2 1.5 2.3-4.8.2-5.6-1.9-6-2.5-6.2-8.4-.2-3.7 0-4.1.9-2.6.6 1.1 2.4 3.5 4.1 5.4z"/></svg>